<svg xmlns="http://www.w3.org/2000/svg" width="1280" height="760" viewBox="0 0 1280 760">
  <defs>
    <style>
      .title { font-family: "Noto Sans CJK SC", "Source Han Sans SC", "Microsoft YaHei", Arial, sans-serif; font-size: 26px; font-weight: 700; fill: #1f2937; }
      .subtitle { font-family: "Noto Sans CJK SC", "Source Han Sans SC", "Microsoft YaHei", Arial, sans-serif; font-size: 14px; fill: #4b5563; }
      .label { font-family: "Noto Sans CJK SC", "Source Han Sans SC", "Microsoft YaHei", Arial, sans-serif; font-size: 14px; fill: #111827; }
      .small { font-family: "Noto Sans CJK SC", "Source Han Sans SC", "Microsoft YaHei", Arial, sans-serif; font-size: 12px; fill: #374151; }
      .tiny { font-family: "Noto Sans CJK SC", "Source Han Sans SC", "Microsoft YaHei", Arial, sans-serif; font-size: 11px; fill: #4b5563; }
      .axis { stroke: #374151; stroke-width: 1.5; }
      .grid { stroke: #e5e7eb; stroke-width: 1; }
    </style>
  </defs>

  <rect width="1280" height="760" fill="#ffffff"/>
  <text x="640" y="42" text-anchor="middle" class="title">不同实体类别识别 F1 值</text>
  <text x="640" y="67" text-anchor="middle" class="subtitle">F1-score of EDBP for Different Entity Categories</text>

  <rect x="56" y="96" width="928" height="520" rx="12" fill="#ffffff" stroke="#cbd5e1"/>
  <line x1="112" y1="548" x2="930" y2="548" class="axis"/>
  <line x1="112" y1="128" x2="112" y2="548" class="axis"/>
  <g>
    <line x1="112" y1="464" x2="930" y2="464" class="grid"/><text x="92" y="469" text-anchor="end" class="small">20</text>
    <line x1="112" y1="380" x2="930" y2="380" class="grid"/><text x="92" y="385" text-anchor="end" class="small">40</text>
    <line x1="112" y1="296" x2="930" y2="296" class="grid"/><text x="92" y="301" text-anchor="end" class="small">60</text>
    <line x1="112" y1="212" x2="930" y2="212" class="grid"/><text x="92" y="217" text-anchor="end" class="small">80</text>
    <line x1="112" y1="128" x2="930" y2="128" class="grid"/><text x="92" y="133" text-anchor="end" class="small">100</text>
  </g>
  <text x="40" y="338" transform="rotate(-90 40 338)" text-anchor="middle" class="label">F1 / %</text>

  <g>
    <rect x="134" y="156.56" width="36" height="391.44" fill="#2563eb"/><text x="152" y="150" text-anchor="middle" class="small">93.20</text><text x="152" y="576" text-anchor="middle" class="small">PAR</text>
    <rect x="191" y="194.70" width="36" height="353.30" fill="#16a34a"/><text x="209" y="188" text-anchor="middle" class="small">84.12</text><text x="209" y="576" text-anchor="middle" class="small">AGR</text>
    <rect x="248" y="162.86" width="36" height="385.14" fill="#2563eb"/><text x="266" y="156" text-anchor="middle" class="small">91.70</text><text x="266" y="576" text-anchor="middle" class="small">CUL</text>
    <rect x="305" y="164.46" width="36" height="383.54" fill="#2563eb"/><text x="323" y="158" text-anchor="middle" class="small">91.32</text><text x="323" y="576" text-anchor="middle" class="small">PER</text>
    <rect x="362" y="218.68" width="36" height="329.32" fill="#f59e0b"/><text x="380" y="212" text-anchor="middle" class="small">78.41</text><text x="380" y="576" text-anchor="middle" class="small">EQU</text>
    <rect x="419" y="209.86" width="36" height="338.14" fill="#16a34a"/><text x="437" y="203" text-anchor="middle" class="small">80.51</text><text x="437" y="576" text-anchor="middle" class="small">LOC</text>
    <rect x="476" y="160.76" width="36" height="387.24" fill="#2563eb"/><text x="494" y="154" text-anchor="middle" class="small">92.20</text><text x="494" y="576" text-anchor="middle" class="small">DIS</text>
    <rect x="533" y="173.91" width="36" height="374.09" fill="#2563eb"/><text x="551" y="167" text-anchor="middle" class="small">89.07</text><text x="551" y="576" text-anchor="middle" class="small">DRU</text>
    <rect x="590" y="200.41" width="36" height="347.59" fill="#16a34a"/><text x="608" y="194" text-anchor="middle" class="small">82.76</text><text x="608" y="576" text-anchor="middle" class="small">PRO</text>
    <rect x="647" y="142.49" width="36" height="405.51" fill="#2563eb"/><text x="665" y="136" text-anchor="middle" class="small">96.55</text><text x="665" y="576" text-anchor="middle" class="small">PES</text>
    <rect x="704" y="171.76" width="36" height="376.24" fill="#2563eb"/><text x="722" y="165" text-anchor="middle" class="small">89.58</text><text x="722" y="576" text-anchor="middle" class="small">NUT</text>
    <rect x="761" y="262.40" width="36" height="285.60" fill="#dc2626" stroke="#7f1d1d" stroke-width="2"/><text x="779" y="252" text-anchor="middle" class="small" font-weight="700">68.00</text><text x="779" y="576" text-anchor="middle" class="small" font-weight="700">FER</text>
    <rect x="818" y="157.99" width="36" height="390.01" fill="#2563eb"/><text x="836" y="151" text-anchor="middle" class="small">92.86</text><text x="836" y="576" text-anchor="middle" class="small">WED</text>
    <rect x="875" y="251.52" width="36" height="296.48" fill="#dc2626" stroke="#7f1d1d" stroke-width="2"/><text x="893" y="241" text-anchor="middle" class="small" font-weight="700">70.59</text><text x="893" y="576" text-anchor="middle" class="small" font-weight="700">TAX</text>
  </g>

  <rect x="1008" y="96" width="220" height="520" rx="12" fill="#f8fafc" stroke="#cbd5e1"/>
  <text x="1118" y="128" text-anchor="middle" class="label" font-weight="700">类别缩写</text>
  <g class="small">
    <text x="1030" y="164">PAR 部位</text><text x="1130" y="164">AGR 农事操作</text>
    <text x="1030" y="192">CUL 品种</text><text x="1130" y="192">PER 时期</text>
    <text x="1030" y="220">EQU 设备</text><text x="1130" y="220">LOC 地域</text>
    <text x="1030" y="248">DIS 病害</text><text x="1130" y="248">DRU 药剂</text>
    <text x="1030" y="276">PRO 产品/工艺</text><text x="1130" y="276">PES 虫害</text>
    <text x="1030" y="304">NUT 营养</text><text x="1130" y="304">FER 肥料</text>
    <text x="1030" y="332">WED 杂草</text><text x="1130" y="332">TAX 分类</text>
  </g>
  <line x1="1030" y1="360" x2="1206" y2="360" stroke="#cbd5e1"/>
  <rect x="1030" y="384" width="18" height="18" fill="#2563eb"/><text x="1058" y="398" class="small">F1 ≥ 88%</text>
  <rect x="1030" y="416" width="18" height="18" fill="#16a34a"/><text x="1058" y="430" class="small">80% ≤ F1 &lt; 88%</text>
  <rect x="1030" y="448" width="18" height="18" fill="#f59e0b"/><text x="1058" y="462" class="small">75% ≤ F1 &lt; 80%</text>
  <rect x="1030" y="480" width="18" height="18" fill="#dc2626"/><text x="1058" y="494" class="small">F1 &lt; 75%</text>
  <rect x="1030" y="528" width="176" height="42" rx="8" fill="#fef2f2" stroke="#fecaca"/>
  <text x="1118" y="546" text-anchor="middle" class="tiny">低频类别 FER 和 TAX</text>
  <text x="1118" y="564" text-anchor="middle" class="tiny">是主要短板</text>

  <text x="520" y="648" text-anchor="middle" class="small">低频肥料类和分类类 F1 明显低于高频部位、品种和病虫害类，说明样本稀缺与词典覆盖仍限制边界识别。</text>
</svg>
