<svg xmlns="http://www.w3.org/2000/svg" width="1200" height="620" viewBox="0 0 1200 620">
  <defs>
    <marker id="arrow" markerWidth="10" markerHeight="10" refX="9" refY="3" orient="auto" markerUnits="strokeWidth">
      <path d="M0,0 L0,6 L9,3 z" fill="#333"/>
    </marker>
    <style>
      .title { font-family: "Noto Sans CJK SC", "Source Han Sans SC", "Microsoft YaHei", Arial, sans-serif; font-size: 24px; font-weight: 700; fill: #222; }
      .label { font-family: "Noto Sans CJK SC", "Source Han Sans SC", "Microsoft YaHei", Arial, sans-serif; font-size: 17px; fill: #222; }
      .small { font-family: "Noto Sans CJK SC", "Source Han Sans SC", "Microsoft YaHei", Arial, sans-serif; font-size: 14px; fill: #333; }
      .box { stroke: #2f3b52; stroke-width: 1.6; rx: 8; ry: 8; }
      .line { stroke: #333; stroke-width: 1.8; fill: none; marker-end: url(#arrow); }
    </style>
  </defs>

  <rect width="1200" height="620" fill="#ffffff"/>
  <text x="600" y="42" text-anchor="middle" class="title">EDBP 模型总体结构</text>
  <text x="600" y="68" text-anchor="middle" class="small">Expert Dictionary and Boundary Prediction for Red Jujube Cultivation NER</text>

  <rect x="45" y="240" width="145" height="88" fill="#f2f5f9" class="box"/>
  <text x="117" y="277" text-anchor="middle" class="label">输入文本</text>
  <text x="117" y="303" text-anchor="middle" class="small">字符序列 X</text>

  <rect x="245" y="132" width="190" height="94" fill="#e8f2ff" class="box"/>
  <text x="340" y="169" text-anchor="middle" class="label">MacBERT 表示层</text>
  <text x="340" y="195" text-anchor="middle" class="small">上下文字符表示</text>

  <rect x="245" y="345" width="190" height="118" fill="#fff1db" class="box"/>
  <text x="340" y="383" text-anchor="middle" class="label">专家词典特征层</text>
  <text x="340" y="409" text-anchor="middle" class="small">训练集自动抽取词典</text>
  <text x="340" y="434" text-anchor="middle" class="small">BMES 四通道编码</text>

  <rect x="510" y="238" width="180" height="96" fill="#eaf7ea" class="box"/>
  <text x="600" y="276" text-anchor="middle" class="label">特征融合层</text>
  <text x="600" y="302" text-anchor="middle" class="small">拼接上下文语义</text>
  <text x="600" y="322" text-anchor="middle" class="small">与词典位置先验</text>

  <rect x="770" y="160" width="190" height="94" fill="#f1e9ff" class="box"/>
  <text x="865" y="198" text-anchor="middle" class="label">起始位置表示</text>
  <text x="865" y="224" text-anchor="middle" class="small">FFN start</text>

  <rect x="770" y="332" width="190" height="94" fill="#f1e9ff" class="box"/>
  <text x="865" y="370" text-anchor="middle" class="label">结束位置表示</text>
  <text x="865" y="396" text-anchor="middle" class="small">FFN end</text>

  <rect x="1010" y="235" width="150" height="110" fill="#ffecec" class="box"/>
  <text x="1085" y="274" text-anchor="middle" class="label">边界预测</text>
  <text x="1085" y="299" text-anchor="middle" class="small">双仿射打分</text>
  <text x="1085" y="322" text-anchor="middle" class="small">Span 分类</text>

  <rect x="1010" y="438" width="150" height="72" fill="#f5f5f5" class="box"/>
  <text x="1085" y="468" text-anchor="middle" class="label">Focal Loss</text>
  <text x="1085" y="492" text-anchor="middle" class="small">类别不平衡处理</text>

  <path d="M190 284 L245 179" class="line"/>
  <path d="M190 284 L245 404" class="line"/>
  <path d="M435 179 C470 190 485 238 510 274" class="line"/>
  <path d="M435 404 C475 398 488 334 510 305" class="line"/>
  <path d="M690 286 L770 207" class="line"/>
  <path d="M690 286 L770 379" class="line"/>
  <path d="M960 207 C995 218 1005 248 1010 282" class="line"/>
  <path d="M960 379 C995 368 1005 332 1010 303" class="line"/>
  <path d="M1085 345 L1085 438" class="line"/>

  <text x="600" y="565" text-anchor="middle" class="small">输出：实体边界与类别，用于红枣栽培知识图谱节点抽取</text>
</svg>
